<svg width="22" height="22" viewBox="0 0 22 22" fill="none" xmlns="http://www.w3.org/2000/svg">
<path d="M20.1665 15.3449V4.28072C20.1665 3.18072 19.2681 2.36489 18.1773 2.45655H18.1223C16.1973 2.62155 13.2731 3.60239 11.6415 4.62906L11.4856 4.72989C11.2198 4.89489 10.7798 4.89489 10.514 4.72989L10.2848 4.59239C8.65313 3.57489 5.73813 2.60322 3.81313 2.44739C2.7223 2.35572 1.83313 3.18072 1.83313 4.27155V15.3449C1.83313 16.2249 2.54813 17.0499 3.42813 17.1599L3.69396 17.1966C5.68313 17.4624 8.75396 18.4707 10.514 19.4332L10.5506 19.4516C10.7981 19.5891 11.1923 19.5891 11.4306 19.4516C13.1906 18.4799 16.2706 17.4624 18.269 17.1966L18.5715 17.1599C19.4515 17.0499 20.1665 16.2249 20.1665 15.3449Z" stroke="#979797" stroke-width="1.5" stroke-linecap="round" stroke-linejoin="round"/>
<path d="M10.9998 5.03223V18.7822" stroke="#979797" stroke-width="1.5" stroke-linecap="round" stroke-linejoin="round"/>
<path d="M7.10388 7.78223H5.04138" stroke="#979797" stroke-width="1.5" stroke-linecap="round" stroke-linejoin="round"/>
<path d="M7.79138 10.5322H5.04138" stroke="#979797" stroke-width="1.5" stroke-linecap="round" stroke-linejoin="round"/>
</svg>
