<svg width="23" height="23" viewBox="0 0 23 23" fill="none" xmlns="http://www.w3.org/2000/svg">
<path d="M11.5005 6.17188V9.36313" stroke="#979797" stroke-width="1.4375" stroke-miterlimit="10" stroke-linecap="round"/>
<path d="M11.5195 1.91699C7.99286 1.91699 5.13703 4.77283 5.13703 8.29949V10.312C5.13703 10.9637 4.86869 11.9412 4.53328 12.497L3.31619 14.5287C2.56869 15.7841 3.08619 17.1832 4.46619 17.6432C9.04703 19.167 14.0016 19.167 18.5824 17.6432C19.8762 17.212 20.432 15.6978 19.7324 14.5287L18.5154 12.497C18.1799 11.9412 17.9116 10.9541 17.9116 10.312V8.29949C17.902 4.79199 15.027 1.91699 11.5195 1.91699Z" stroke="#979797" stroke-width="1.4375" stroke-miterlimit="10" stroke-linecap="round"/>
<path d="M14.6916 18.0361C14.6916 19.7899 13.2541 21.2274 11.5004 21.2274C10.6283 21.2274 9.82331 20.8632 9.24831 20.2882C8.67331 19.7132 8.30914 18.9082 8.30914 18.0361" stroke="#979797" stroke-width="1.4375" stroke-miterlimit="10"/>
</svg>
