<svg width="22" height="23" viewBox="0 0 22 23" fill="none" xmlns="http://www.w3.org/2000/svg">
<path d="M11 14.2012C12.5188 14.2012 13.75 12.97 13.75 11.4512C13.75 9.93239 12.5188 8.70117 11 8.70117C9.48122 8.70117 8.25 9.93239 8.25 11.4512C8.25 12.97 9.48122 14.2012 11 14.2012Z" stroke="#979797" stroke-width="1.5" stroke-miterlimit="10" stroke-linecap="round" stroke-linejoin="round"/>
<path d="M1.83331 12.2578V10.6445C1.83331 9.69115 2.61248 8.90282 3.57498 8.90282C5.23415 8.90282 5.91248 7.72949 5.07831 6.29032C4.60165 5.46532 4.88581 4.39282 5.71998 3.91615L7.30581 3.00865C8.02998 2.57782 8.96498 2.83449 9.39581 3.55865L9.49665 3.73282C10.3216 5.17199 11.6783 5.17199 12.5125 3.73282L12.6133 3.55865C13.0441 2.83449 13.9791 2.57782 14.7033 3.00865L16.2891 3.91615C17.1233 4.39282 17.4075 5.46532 16.9308 6.29032C16.0966 7.72949 16.775 8.90282 18.4341 8.90282C19.3875 8.90282 20.1758 9.68199 20.1758 10.6445V12.2578C20.1758 13.2112 19.3966 13.9995 18.4341 13.9995C16.775 13.9995 16.0966 15.1728 16.9308 16.612C17.4075 17.4462 17.1233 18.5095 16.2891 18.9862L14.7033 19.8937C13.9791 20.3245 13.0441 20.0678 12.6133 19.3437L12.5125 19.1695C11.6875 17.7303 10.3308 17.7303 9.49665 19.1695L9.39581 19.3437C8.96498 20.0678 8.02998 20.3245 7.30581 19.8937L5.71998 18.9862C4.88581 18.5095 4.60165 17.437 5.07831 16.612C5.91248 15.1728 5.23415 13.9995 3.57498 13.9995C2.61248 13.9995 1.83331 13.2112 1.83331 12.2578Z" stroke="#979797" stroke-width="1.5" stroke-miterlimit="10" stroke-linecap="round" stroke-linejoin="round"/>
</svg>
