<svg width="96" height="58" viewBox="0 0 96 58" fill="none" xmlns="http://www.w3.org/2000/svg">
<path d="M95.972 44.5325C95.6876 41.4816 95.2678 38.4306 94.9157 35.3947C94.7938 34.3276 94.5771 33.2755 94.55 32.2085C94.5094 30.45 94.076 28.7517 93.9406 27.0083C93.8729 26.1216 93.8052 25.2198 93.6833 24.3181C93.6156 23.747 93.3989 23.4614 92.8301 23.5666C91.8821 23.747 90.9206 23.8672 89.9591 24.0626L89.0517 24.2579L88.6319 22.1088H88.6454C88.6183 22.0035 88.6048 21.8833 88.5777 21.7781C88.4558 21.192 88.1714 21.1318 87.7381 21.2821C86.763 21.6428 85.7879 22.0186 84.7993 22.3492C84.4878 22.4544 84.217 22.5747 84.2712 22.9805C84.3253 23.4163 84.6097 23.6267 85.0024 23.5816C85.49 23.5215 85.9775 23.4163 86.4786 23.3412C86.8578 23.281 87.2641 23.3261 87.3318 23.8221C87.413 24.4233 87.6297 24.9794 87.711 25.5655C87.9277 27.1436 88.3746 28.6615 88.659 30.2246C88.9027 31.5472 89.2142 32.8547 89.458 34.1623C89.8372 36.2363 90.3247 38.2803 90.7174 40.3393C90.8935 41.2862 90.8529 41.4816 89.9997 41.6619C88.3204 42.0076 84.9889 43.736 84.8941 43.8412C84.7451 43.9313 84.5826 44.0065 84.4337 44.0967C84.5285 44.292 84.6368 44.3071 84.7451 44.277C84.9483 44.2169 85.3546 44.0967 85.3546 44.0967C85.4087 44.0817 85.4494 44.0817 85.49 44.0666C87.711 43.3903 89.9997 43.1949 92.2884 42.9695C93.1145 42.8793 93.1551 42.8342 92.952 41.9324C92.4915 39.9035 92.0717 37.8595 91.6248 35.8155C91.205 33.9068 90.7581 31.998 90.3382 30.0893C90.0674 28.8569 89.2413 25.3551 89.2413 25.3551L91.9498 25.295L92.1259 26.4673L92.2342 27.1736C92.2342 27.1886 92.2342 27.2037 92.2342 27.2187C92.3019 27.9101 92.329 28.6014 92.4373 29.2777C92.8301 31.6824 92.952 34.1322 93.3312 36.5519C93.6291 38.4456 93.7374 40.3694 94.0354 42.2631C94.2927 43.8712 94.1708 44.0365 92.7353 44.0365C91.4487 44.0365 88.9569 44.6227 88.9569 44.6227C88.8756 44.6377 88.7944 44.6527 88.7131 44.6527C88.7402 44.8782 88.835 44.9233 88.9569 44.9383C89.1736 44.9684 89.3767 44.9984 89.5934 45.0285C89.5934 45.0285 93.3312 45.3291 95.2136 45.4343C95.9991 45.4794 96.0532 45.4193 95.972 44.5325Z" fill="black"/>
<path d="M89.756 39.6931C89.5529 39.137 89.3362 38.5959 89.133 38.0399C88.483 36.2664 87.8465 34.4929 87.1829 32.7195C86.4381 30.7206 85.6797 28.7367 84.9348 26.7378C84.2577 24.8892 83.6212 23.0406 82.9305 21.192C82.5649 20.2301 82.3753 20.17 81.4814 20.6058C80.4522 21.1168 79.4636 21.688 78.5021 22.3643C77.1749 23.2961 75.9831 24.4233 74.9133 25.6858C75.1299 25.5655 75.3602 25.4453 75.5633 25.31C77.2561 24.2279 78.949 23.1909 80.872 22.6799C81.4679 22.5146 81.7658 22.7701 81.9554 23.236C82.3617 24.2279 82.7003 25.2649 83.0524 26.2869C83.9733 28.9321 84.8807 31.5773 85.8016 34.2224C86.3568 35.8306 86.912 37.4237 87.4673 39.0318C87.6163 39.4677 87.5621 39.6931 87.1287 39.8734C86.1807 40.2792 85.3005 40.8053 84.4202 41.3914C83.4722 42.0076 82.5513 42.6689 81.6575 43.3753C81.4273 43.5556 81.2106 43.736 80.9804 43.9314C81.1023 44.1117 81.2106 44.0967 81.3189 44.0516C81.5085 43.9614 81.7117 43.8712 81.9148 43.7811C84.2983 42.6689 86.7225 41.6619 89.2279 40.8954C89.8914 40.7001 89.9998 40.3694 89.756 39.6931Z" fill="black"/>
<path d="M76.105 28.917C77.5947 28.1205 78.9625 27.0534 80.5334 26.4522C78.7729 26.6175 77.3103 27.4742 76.105 28.917Z" fill="black"/>
<path d="M82.5107 33.997C82.4429 33.7415 82.2127 33.7865 82.0502 33.8467C80.8178 34.2825 79.7615 35.0039 78.8 36.071C78.9489 36.1161 79.0302 36.1612 79.0708 36.1461C80.0594 35.3796 81.1022 34.7184 82.2533 34.2975C82.3752 34.2374 82.5513 34.1773 82.5107 33.997Z" fill="black"/>
<path d="M83.743 37.4387C82.4294 37.7092 81.3731 38.5358 80.3709 39.4526C80.2897 39.5277 80.2762 39.6329 80.3439 39.7081C80.4116 39.7832 80.5064 39.7682 80.5876 39.7081C81.671 38.8514 82.8628 38.2202 84.0545 37.4988C83.9597 37.4687 83.8514 37.4236 83.743 37.4387Z" fill="black"/>
<path d="M80.9804 30.3449C80.8856 30.1044 80.6147 30.2246 80.4387 30.3148C79.4907 30.7507 78.6239 31.3218 77.8249 32.1634C78.0958 32.2987 78.2312 32.1634 78.3937 32.0732C79.125 31.6224 79.8699 31.1715 80.6147 30.7206C80.7637 30.6455 81.1022 30.6755 80.9804 30.3449Z" fill="black"/>
<path d="M17.4687 44.3717C16.2185 43.4974 14.7629 43.0793 13.3243 42.7182C11.4405 42.243 9.53952 41.8629 7.70707 41.1787C6.5939 40.7796 5.97737 40.0194 5.9945 39.1071C5.9945 38.1188 7.17617 36.0472 7.87832 35.8001C8.03246 35.7431 8.22084 35.7431 8.37497 35.7621C9.98479 36.0092 11.5775 35.8191 13.1188 35.382C14.6259 34.9638 15.9959 34.2036 16.8693 32.6451C17.0063 32.4171 17.2803 32.227 17.1091 31.9039C16.9378 31.6188 16.6467 31.6949 16.4069 31.7139C15.1739 31.7328 13.9408 31.8089 12.8105 31.1247C11.4747 30.3264 10.1047 30.1744 8.59761 30.5735C6.61102 31.1057 4.74432 32.132 2.65499 32.17C2.20972 32.17 2.1926 32.5691 2.46661 32.9112C2.62074 33.1013 2.80912 33.2343 2.98038 33.3864C4.14492 34.3557 4.14493 34.3557 3.44278 35.7621C3.40852 35.8191 3.35714 35.8571 3.34001 35.9141C2.38098 38.3278 2.26109 40.4755 4.65869 42.4141C5.87462 43.3834 7.2618 43.9535 8.68323 44.3527C10.8068 44.9418 12.9647 45.36 15.0882 45.9682C17.229 46.5763 18.0167 47.7547 16.6467 50.1114C14.3347 54.1026 8.15234 56.8965 3.64828 55.0719C2.41523 54.5778 2.1926 54.1596 2.38098 52.7152C2.56936 51.3278 3.30576 50.2444 3.93941 49.0851C4.62445 47.7927 5.65199 46.7664 6.28564 45.2079C6.01163 45.322 5.92599 45.322 5.85749 45.379C3.75103 47.3936 1.93571 49.6553 1.01092 52.6392C0.54853 54.1026 1.01092 55.547 2.12409 56.5163C3.22014 57.4856 4.53881 57.7517 5.87462 57.8657C9.00862 58.1318 12.0056 57.3336 14.8142 55.8511C16.7323 54.8438 18.4963 53.5134 19.2669 51.1567C20.1575 48.3819 20.089 46.1962 17.4687 44.3717Z" fill="black"/>
<path d="M6.18284 16.4903C5.96021 15.711 5.97733 15.0839 6.25134 14.3806C6.73086 13.1643 7.57002 12.385 8.52906 11.6628C9.07708 11.2637 9.55661 11.3397 10.019 11.7388C11.3034 12.8412 12.5194 14.0005 12.2111 16.0912C12.1255 16.7183 12.3652 16.6423 12.7934 16.4713C14.3347 15.8821 15.2252 14.5517 15.7219 13.0122C16.3041 11.1687 16.0815 9.43915 14.5744 8.07074C13.6325 7.21548 12.5536 6.56929 11.5946 5.73304C10.5499 4.80176 10.2416 0.316406 10.2416 0.316406C9.28259 1.2857 8.59756 2.84417 8.92295 3.83247C9.00858 4.07954 9.09421 4.34562 8.90586 4.53568C8.7346 4.70673 8.51197 4.64971 8.35783 4.49766C7.77556 3.90848 7.29604 4.26959 6.85078 4.66871C5.25809 6.07513 3.90515 7.69062 2.91186 9.68623C1.3363 12.8602 3.51123 15.9201 6.18284 16.4903Z" fill="black"/>
<path d="M15.2766 20.3674C14.8998 20.5005 15.0026 20.8616 14.9855 21.1657C14.9684 21.4127 14.9512 21.6788 14.9341 21.9259C14.7971 23.2753 14.9512 24.6437 14.386 25.9361C14.0607 26.6773 13.5811 27.0955 12.8447 26.9624C12.2625 26.8484 11.6802 26.6393 11.115 26.4493C9.77924 25.9931 8.42631 25.575 7.00487 25.727C6.78224 25.746 6.50823 25.727 6.4226 26.0121C6.31984 26.3352 6.62811 26.4113 6.79937 26.5443C8.8887 28.1978 11.1322 29.5282 13.6154 30.2884C16.4583 31.1627 18.6161 29.5472 18.6161 25.8601C18.4791 24.1686 17.6228 22.192 15.9445 20.6715C15.7561 20.4625 15.5677 20.2724 15.2766 20.3674Z" fill="black"/>
<path d="M1.55894 30.6875C2.07271 31.0486 2.65499 31.0677 3.20301 31.1627C5.05259 31.5048 6.67952 30.8776 8.10096 29.5472C8.56335 29.1101 8.49485 28.863 7.89545 28.6729C7.36456 28.5019 6.81653 28.2738 6.33701 27.9317C4.38468 26.5443 3.87091 24.3776 3.71678 21.9829C3.71678 21.8309 3.71678 21.6598 3.69968 21.5078C3.61405 21.1277 3.93945 20.5765 3.52843 20.3674C3.06603 20.1394 2.80915 20.7285 2.46663 20.9946C2.39812 21.0516 2.36388 21.1467 2.29538 21.2037C1.09658 22.6291 0.480057 24.3776 0.103284 26.2592C-0.25635 28.1218 0.343022 29.8513 1.55894 30.6875Z" fill="black"/>
<path d="M9.23121 23.4844L9.57372 22.8762C10.2245 21.7359 11.0465 20.7286 11.5946 19.5122C12.0227 18.5619 11.9542 17.8207 11.2178 17.1555C10.5156 16.5283 9.65935 16.2052 8.75169 16.3192C7.43301 16.4903 6.69661 17.3265 6.71374 18.6379C6.73083 18.999 6.83362 19.4362 7.00487 19.8923C7.45014 21.0516 8.4263 21.6218 8.9572 22.6861C8.9572 22.6861 9.21408 23.3323 9.23121 23.4844Z" fill="black"/>
<path d="M22.7736 42.9118L22.7541 42.5014L22.7345 42.4624C22.4219 42.9443 22.0246 43.3286 21.5426 43.6152C21.0736 43.9018 20.6112 44.0451 20.1553 44.0451C18.7875 44.0451 18.0059 42.9834 17.8105 40.8601C17.7844 40.5214 17.7714 39.6486 17.7714 38.2418C17.7714 36.8349 17.83 36.0012 17.9473 35.7407C18.2859 35.4671 18.8331 35.3303 19.5886 35.3303C19.8882 35.3303 20.0706 35.3629 20.1357 35.428C20.1357 35.4411 20.1292 35.6169 20.1162 35.9556C20.051 36.9456 20.0185 37.7077 20.0185 38.2418C20.0185 38.7759 20.025 39.1732 20.038 39.4337C20.051 39.6812 20.0576 39.844 20.0576 39.9222C20.0706 39.9873 20.0901 40.1111 20.1162 40.2934C20.1553 40.4758 20.2074 40.6321 20.2725 40.7624C20.4679 41.1402 20.7675 41.3291 21.1713 41.3291C21.5882 41.3291 21.9529 41.1271 22.2656 40.7233C22.5912 40.3065 22.7475 40.0134 22.7345 39.844V39.1797C22.7345 36.7958 22.7736 35.5127 22.8518 35.3303C22.9169 35.2131 23.1188 35.0893 23.4575 34.9591C23.8092 34.8288 24.1544 34.7637 24.4931 34.7637C24.8318 34.7637 25.0272 34.7897 25.0793 34.8418L25.0402 35.7602C24.9621 37.623 24.923 39.0624 24.923 40.0785C24.923 41.0946 24.949 41.7394 25.0011 42.013C25.0923 42.6643 25.2682 43.1853 25.5287 43.5761C25.5287 43.7064 25.2617 43.9148 24.7276 44.2014C24.1935 44.488 23.7376 44.6313 23.3598 44.6313C23.2556 44.6313 23.1383 44.4359 23.0081 44.0451C22.8778 43.6543 22.7996 43.2765 22.7736 42.9118ZM26.9362 41.0164L26.8971 36.5809C26.8971 35.8123 26.9232 35.402 26.9753 35.3499C27.1186 35.2066 27.3661 35.0828 27.7178 34.9786C28.0695 34.8614 28.3952 34.8028 28.6948 34.8028C29.0074 34.8028 29.1637 34.8353 29.1637 34.9005C29.1246 35.2522 29.1051 35.656 29.1051 36.1119C29.1051 36.5548 29.1181 36.7763 29.1442 36.7763C29.1702 36.7763 29.1963 36.7633 29.2223 36.7372C29.2484 36.6981 29.2875 36.646 29.3396 36.5809C29.4047 36.5027 29.5285 36.3725 29.7108 36.1901C29.9062 36.0077 30.1147 35.8514 30.3361 35.7211C30.8963 35.3564 31.4955 35.174 32.1338 35.174C32.238 35.3434 32.2901 35.6039 32.2901 35.9556C32.2901 36.6981 32.1989 37.2257 32.0165 37.5383L31.9384 37.6947L31.6844 37.6556C30.7465 37.6556 30.0105 38.0399 29.4764 38.8084C29.2679 39.1211 29.1637 39.3555 29.1637 39.5119V41.2314C29.1637 42.7945 29.1442 43.5957 29.1051 43.6348C28.7404 43.9865 28.0239 44.1623 26.9557 44.1623C26.8515 44.1623 26.7994 44.1428 26.7994 44.1037C26.8906 43.5957 26.9362 42.5666 26.9362 41.0164ZM38.0772 42.9118L38.0577 42.5014L38.0382 42.4624C37.7255 42.9443 37.3282 43.3286 36.8462 43.6152C36.3773 43.9018 35.9148 44.0451 35.4589 44.0451C34.0911 44.0451 33.3095 42.9834 33.1141 40.8601C33.0881 40.5214 33.0751 39.6486 33.0751 38.2418C33.0751 36.8349 33.1337 36.0012 33.2509 35.7407C33.5896 35.4671 34.1367 35.3303 34.8923 35.3303C35.1919 35.3303 35.3742 35.3629 35.4394 35.428C35.4394 35.4411 35.4329 35.6169 35.4198 35.9556C35.3547 36.9456 35.3221 37.7077 35.3221 38.2418C35.3221 38.7759 35.3286 39.1732 35.3417 39.4337C35.3547 39.6812 35.3612 39.844 35.3612 39.9222C35.3742 39.9873 35.3938 40.1111 35.4198 40.2934C35.4589 40.4758 35.511 40.6321 35.5761 40.7624C35.7715 41.1402 36.0712 41.3291 36.475 41.3291C36.8918 41.3291 37.2566 41.1271 37.5692 40.7233C37.8949 40.3065 38.0512 40.0134 38.0382 39.844V39.1797C38.0382 36.7958 38.0772 35.5127 38.1554 35.3303C38.2205 35.2131 38.4225 35.0893 38.7611 34.9591C39.1129 34.8288 39.4581 34.7637 39.7968 34.7637C40.1354 34.7637 40.3308 34.7897 40.3829 34.8418L40.3439 35.7602C40.2657 37.623 40.2266 39.0624 40.2266 40.0785C40.2266 41.0946 40.2527 41.7394 40.3048 42.013C40.396 42.6643 40.5718 43.1853 40.8324 43.5761C40.8324 43.7064 40.5653 43.9148 40.0312 44.2014C39.4971 44.488 39.0412 44.6313 38.6634 44.6313C38.5592 44.6313 38.442 44.4359 38.3117 44.0451C38.1815 43.6543 38.1033 43.2765 38.0772 42.9118ZM42.1467 40.8406L42.1076 33.6304C42.1076 32.002 42.1402 31.1553 42.2053 31.0902C42.3617 30.9339 42.6157 30.7841 42.9674 30.6408C43.3321 30.4975 43.6773 30.4258 44.003 30.4258C44.3287 30.4258 44.4915 30.4519 44.4915 30.504C44.4654 30.6343 44.4264 31.3768 44.3743 32.7315C44.3352 34.0733 44.3222 34.907 44.3352 35.2326H44.6478C46.0938 35.2326 47.2727 35.5648 48.1845 36.2292C48.5493 36.5027 48.8684 36.9131 49.142 37.4602C49.4155 37.9943 49.5523 38.6195 49.5523 39.336C49.5523 40.5735 49.0508 41.6091 48.0477 42.4428C47.0447 43.2635 45.8137 43.7911 44.3547 44.0256C44.3547 44.3252 44.3482 44.488 44.3352 44.514C44.1658 44.6834 43.8662 44.8137 43.4363 44.9048C43.0195 44.996 42.6743 45.0416 42.4007 45.0416C42.1402 45.0416 42.0099 45.0221 42.0099 44.983C42.1011 44.6183 42.1467 43.2374 42.1467 40.8406ZM44.3938 41.8762C44.7325 41.8762 45.0842 41.8241 45.4489 41.7199C45.8137 41.6026 46.1068 41.4593 46.3282 41.29C46.5627 41.1206 46.7711 40.8536 46.9535 40.4888C47.1489 40.1241 47.2466 39.6486 47.2466 39.0624C47.2466 38.4762 47.0382 38.0268 46.6213 37.7142C46.2175 37.4016 45.7486 37.2452 45.2145 37.2452L44.3156 37.3039V38.7107C44.3156 40.4693 44.3417 41.5245 44.3938 41.8762ZM59.0061 39.59C59.0061 40.8275 58.6283 41.9022 57.8728 42.8141C57.1303 43.7129 56.1142 44.1623 54.8246 44.1623C53.548 44.1623 52.5449 43.765 51.8154 42.9704C51.0859 42.1758 50.7212 41.1467 50.7212 39.8831C50.7212 38.6065 51.1706 37.4797 52.0694 36.5027C52.9813 35.5127 54.2058 35.0177 55.7429 35.0177C56.3682 35.0437 56.7069 35.0828 56.759 35.1349C56.8111 35.187 56.8372 35.3108 56.8372 35.5062C56.8372 35.7016 56.8176 35.9165 56.7785 36.151C56.9739 36.151 57.2214 36.2682 57.5211 36.5027C57.8337 36.7242 58.0877 36.9521 58.2831 37.1866C58.4785 37.4211 58.6478 37.7533 58.7911 38.1831C58.9344 38.6 59.0061 39.069 59.0061 39.59ZM56.1533 38.2222C55.8537 38.0268 55.5606 37.9291 55.274 37.9291H55.1177C55.0916 37.877 55.0786 37.7663 55.0786 37.597C55.0786 37.4276 55.0981 37.2648 55.1372 37.1085C54.6031 37.1085 54.1016 37.3494 53.6326 37.8314C53.1767 38.3134 52.9487 38.9843 52.9487 39.844C52.9487 40.8601 53.2744 41.5635 53.9257 41.9543C54.1732 42.1107 54.5119 42.1888 54.9418 42.1888C55.3847 42.1888 55.795 41.9869 56.1728 41.5831C56.5636 41.1793 56.759 40.58 56.759 39.7854C56.759 38.9908 56.5571 38.4697 56.1533 38.2222ZM68.4707 39.59C68.4707 40.8275 68.0929 41.9022 67.3374 42.8141C66.5949 43.7129 65.5788 44.1623 64.2892 44.1623C63.0126 44.1623 62.0095 43.765 61.28 42.9704C60.5505 42.1758 60.1858 41.1467 60.1858 39.8831C60.1858 38.6065 60.6352 37.4797 61.534 36.5027C62.4459 35.5127 63.6704 35.0177 65.2075 35.0177C65.8328 35.0437 66.1715 35.0828 66.2236 35.1349C66.2757 35.187 66.3018 35.3108 66.3018 35.5062C66.3018 35.7016 66.2822 35.9165 66.2431 36.151C66.4385 36.151 66.686 36.2682 66.9857 36.5027C67.2983 36.7242 67.5523 36.9521 67.7477 37.1866C67.9431 37.4211 68.1124 37.7533 68.2557 38.1831C68.399 38.6 68.4707 39.069 68.4707 39.59ZM65.6179 38.2222C65.3183 38.0268 65.0252 37.9291 64.7386 37.9291H64.5823C64.5562 37.877 64.5432 37.7663 64.5432 37.597C64.5432 37.4276 64.5627 37.2648 64.6018 37.1085C64.0677 37.1085 63.5662 37.3494 63.0972 37.8314C62.6413 38.3134 62.4133 38.9843 62.4133 39.844C62.4133 40.8601 62.739 41.5635 63.3903 41.9543C63.6378 42.1107 63.9765 42.1888 64.4064 42.1888C64.8493 42.1888 65.2596 41.9869 65.6374 41.5831C66.0282 41.1793 66.2236 40.58 66.2236 39.7854C66.2236 38.9908 66.0217 38.4697 65.6179 38.2222ZM70.1975 39.8636L70.1389 33.0833C70.1389 31.8197 70.1715 31.1553 70.2366 31.0902C70.3929 30.9339 70.6469 30.7841 70.9986 30.6408C71.3504 30.4975 71.6891 30.4258 72.0147 30.4258C72.3404 30.4258 72.5032 30.4519 72.5032 30.504C72.4902 30.5691 72.4576 31.481 72.4055 33.2396C72.3664 34.9982 72.3469 36.138 72.3469 36.659C72.3469 37.1671 72.3534 37.4602 72.3664 37.5383C72.3795 37.6035 72.4055 37.636 72.4446 37.636L72.4837 37.6165C72.9005 37.1736 73.5193 36.62 74.34 35.9556C75.1606 35.2913 75.6882 34.9591 75.9227 34.9591C76.6912 35.4411 77.0755 35.8319 77.0755 36.1315C76.6847 36.379 76.2223 36.7177 75.6882 37.1475C75.1541 37.5774 74.861 37.851 74.8089 37.9682C74.8089 38.0724 74.9196 38.4502 75.1411 39.1015C75.3756 39.7398 75.7143 40.4954 76.1572 41.3681C76.6001 42.2409 77.043 42.8988 77.4859 43.3417C77.4859 43.498 77.1993 43.6934 76.6261 43.9279C76.0529 44.1623 75.5579 44.2796 75.1411 44.2796C74.9848 44.2796 74.6786 43.6673 74.2227 42.4428C73.7798 41.2183 73.4737 40.2674 73.3043 39.59L73.2653 39.5314C73.2132 39.5314 73.0503 39.7203 72.7768 40.098C72.5032 40.4758 72.3664 40.7298 72.3664 40.8601L72.4251 42.8532C72.4251 43.3221 72.399 43.5827 72.3469 43.6348C72.1775 43.8041 71.8844 43.9344 71.4676 44.0256C71.0508 44.1167 70.7055 44.1623 70.432 44.1623C70.1715 44.1623 70.0412 44.1428 70.0412 44.1037C70.1454 43.5305 70.1975 42.1172 70.1975 39.8636Z" fill="black"/>
</svg>
